<?xml version="1.0" encoding="iso-8859-1"?>
<!-- Generator: Adobe Illustrator 19.0.0, SVG Export Plug-In . SVG Version: 6.00 Build 0)  -->
<!-- License: CC0. Made by SVG Repo: https://www.svgrepo.com/svg/245458/mortgage-loan-mortgage -->
<svg version="1.1" id="Layer_1" xmlns="http://www.w3.org/2000/svg" xmlns:xlink="http://www.w3.org/1999/xlink" x="0px" y="0px"
	 viewBox="0 0 512 512" style="enable-background:new 0 0 512 512;" xml:space="preserve">
<path style="fill:#FFD791;" d="M281.653,0c-46.856,0-84.977,38.121-84.977,84.977s38.121,84.977,84.977,84.977
	s84.977-38.12,84.977-84.977S328.51,0,281.653,0z"/>
<path style="fill:#F8BE73;" d="M299.557,152.05c-46.856,0-84.977-38.121-84.977-84.977c0-18.87,6.191-36.319,16.637-50.436
	c-20.936,15.493-34.541,40.354-34.541,68.34c0,46.856,38.121,84.977,84.977,84.977c27.986,0,52.847-13.605,68.34-34.541
	C335.876,145.86,318.428,152.05,299.557,152.05z"/>
<path style="fill:#96CA62;" d="M296.618,76.96h-6.948V54.514h17.637c4.427,0,8.017-3.589,8.017-8.017s-3.589-8.017-8.017-8.017
	H289.67v-9.086c0-4.427-3.589-8.017-8.017-8.017c-4.427,0-8.017,3.589-8.017,8.017v9.086h-6.948
	c-10.314,0-18.706,8.392-18.706,18.706v17.102c0,10.314,8.392,18.706,18.706,18.706h6.948v22.447H256
	c-4.427,0-8.017,3.589-8.017,8.017s3.589,8.017,8.017,8.017h17.637v9.086c0,4.427,3.589,8.017,8.017,8.017
	c4.427,0,8.017-3.589,8.017-8.017v-9.086h6.948c10.314,0,18.706-8.392,18.706-18.706V95.666
	C315.323,85.352,306.932,76.96,296.618,76.96z M266.689,76.96c-1.473,0-2.672-1.199-2.672-2.672V57.186
	c0-1.473,1.199-2.672,2.672-2.672h6.948V76.96H266.689z M299.29,112.768c0,1.473-1.199,2.672-2.672,2.672h-6.948V92.994h6.948
	c1.473,0,2.672,1.199,2.672,2.672V112.768z"/>
<path style="fill:#C4DF64;" d="M509.2,301.22L389.484,198.607c-1.453-1.245-3.303-1.93-5.217-1.93H127.733
	c-3.355,0-6.355,2.089-7.519,5.235c-1.164,3.146-0.246,6.685,2.301,8.868l119.716,102.614c1.453,1.245,3.303,1.93,5.217,1.93
	h256.534c3.355,0,6.355-2.089,7.519-5.235C512.665,306.942,511.747,303.404,509.2,301.22z"/>
<path style="fill:#96CA62;" d="M252.666,301.22L132.95,198.607c-3.003-2.573-7.432-2.573-10.435,0L2.8,301.22
	c-2.547,2.183-3.465,5.722-2.301,8.867c1.164,3.147,4.164,5.235,7.519,5.235h239.432c3.355,0,6.355-2.089,7.519-5.235
	C256.131,306.942,255.213,303.404,252.666,301.22z"/>
<path style="fill:#E9E9E9;" d="M239.432,503.983c0,4.427,3.589,8.017,8.017,8.017h256.534c4.427,0,8.017-3.589,8.017-8.017V307.307
	H239.432V503.983z"/>
<path style="fill:#D3D2D2;" d="M0,503.983c0,4.427,3.589,8.017,8.017,8.017h247.448V307.307H0V503.983z"/>
<path style="fill:#96CA62;" d="M375.716,246.914H213.244c-4.427,0-8.017-3.589-8.017-8.017c0-4.427,3.589-8.017,8.017-8.017h162.471
	c4.427,0,8.017,3.589,8.017,8.017C383.732,243.325,380.143,246.914,375.716,246.914z"/>
<rect x="84.977" y="367.164" style="fill:#918F90;" width="85.511" height="144.835"/>
<rect x="84.977" y="367.164" style="fill:#7B7979;" width="25.653" height="144.835"/>
<path style="fill:#BDBCBC;" d="M178.505,511.999h-16.033V375.181H92.994v136.818H76.961V367.164c0-4.427,3.589-8.017,8.017-8.017
	h85.511c4.427,0,8.017,3.589,8.017,8.017V511.999z"/>
<rect x="298.755" y="367.164" style="fill:#6DDAE1;" width="51.307" height="85.511"/>
<g>
	<polygon style="fill:#4FC4D4;" points="298.755,367.164 298.755,413.661 345.252,367.164 	"/>
	<polygon style="fill:#4FC4D4;" points="298.755,452.676 304.1,452.676 350.062,406.713 350.062,378.388 298.755,429.695 	"/>
	<polygon style="fill:#4FC4D4;" points="350.062,452.676 350.062,428.122 327.084,452.676 	"/>
</g>
<path style="fill:#D3D2D2;" d="M350.062,460.692h-51.307c-4.427,0-8.017-3.589-8.017-8.017v-85.511c0-4.427,3.589-8.017,8.017-8.017
	h51.307c4.427,0,8.017,3.589,8.017,8.017v85.511C358.079,457.103,354.49,460.692,350.062,460.692z M306.772,444.659h35.273v-69.478
	h-35.273V444.659z"/>
<rect x="401.369" y="367.164" style="fill:#6DDAE1;" width="51.307" height="85.511"/>
<g>
	<polygon style="fill:#4FC4D4;" points="401.369,367.164 401.369,413.661 447.866,367.164 	"/>
	<polygon style="fill:#4FC4D4;" points="401.369,452.676 406.713,452.676 452.676,406.713 452.676,378.388 401.369,429.695 	"/>
	<polygon style="fill:#4FC4D4;" points="452.676,452.676 452.676,428.122 429.698,452.676 	"/>
</g>
<path style="fill:#D3D2D2;" d="M452.676,460.692h-51.307c-4.427,0-8.017-3.589-8.017-8.017v-85.511c0-4.427,3.589-8.017,8.017-8.017
	h51.307c4.427,0,8.017,3.589,8.017,8.017v85.511C460.692,457.103,457.103,460.692,452.676,460.692z M409.386,444.659h35.273v-69.478
	h-35.273V444.659z"/>
<path style="fill:#BDBCBC;" d="M110.631,452.141c-4.427,0-8.017-3.589-8.017-8.017v-8.551c0-4.427,3.589-8.017,8.017-8.017
	s8.017,3.589,8.017,8.017v8.551C118.647,448.552,115.058,452.141,110.631,452.141z"/>
<g>
	<path style="fill:#C4DF64;" d="M153.386,289.67h-51.307c-4.427,0-8.017-3.589-8.017-8.017c0-4.427,3.589-8.017,8.017-8.017h51.307
		c4.427,0,8.017,3.589,8.017,8.017C161.403,286.081,157.814,289.67,153.386,289.67z"/>
	<path style="fill:#C4DF64;" d="M144.835,264.016h-34.205c-4.427,0-8.017-3.589-8.017-8.017c0-4.427,3.589-8.017,8.017-8.017h34.205
		c4.427,0,8.017,3.589,8.017,8.017C152.852,260.427,149.262,264.016,144.835,264.016z"/>
</g>
</svg>
